# xmcd
#
# Track frame offsets:
#	150
#	11149
#	20936
#	36159
#	49860
#	63469
#	74696
#	89859
#	104073
#	117022
#	127878
#	140570
#	154065
#	169361
#	184120
#	201071
#	216643
#	231500
#	252172
#	266665
#	285750
#	311051
#	324307
#	340059
#
# Disc length: 4724 seconds
#
# Revision: 0
# Processed by: cddbd v1.5.2PL0 Copyright (c) Steve Scherf et al.
# Submitted via: audiograbber 1.83.01
#
DISCID=7b127218
DTITLE=Nino Ferrer - L'indispensable
DYEAR=1991
DGENRE=Chanson
TTITLE0=Mirza
TTITLE1=Oh Hé Hein Bon
TTITLE2=Je Veux etre Noir
TTITLE3=Madame Robert
TTITLE4=Les Cornichons
TTITLE5=Alexandre
TTITLE6=Mao et Moa
TTITLE7=Je Cherche une Petite Fille
TTITLE8=Mon Copain Bismark
TTITLE9=Les Hommes a tout Faire
TTITLE10=Le Telefon
TTITLE11=Mamadou Mémé
TTITLE12=La Rua Madureira
TTITLE13=Je Vends des Robes
TTITLE14=La Maison près de la Fontaine
TTITLE15=Pour Oublier qu'on s'est Aimé
TTITLE16=Kinou
TTITLE17=Le Sud
TTITLE18=Chanson pour Nathalie
TTITLE19=Il Pleut Bergère
TTITLE20=L'Arbre Noir
TTITLE21=Barberine
TTITLE22=Rock n' Roll Cow-Boy
TTITLE23=L'Arche de Noé
EXTD=
EXTT0=
EXTT1=
EXTT2=
EXTT3=
EXTT4=
EXTT5=
EXTT6=
EXTT7=
EXTT8=
EXTT9=
EXTT10=
EXTT11=
EXTT12=
EXTT13=
EXTT14=
EXTT15=
EXTT16=
EXTT17=
EXTT18=
EXTT19=
EXTT20=
EXTT21=
EXTT22=
EXTT23=
PLAYORDER=
